<svg xmlns="http://www.w3.org/2000/svg" viewBox="0 0 512 512"><defs><style>.cls-1{fill:#E8E9E8;fill-rule:evenodd;}.cls-2{fill:#020202;}</style></defs><g id="No_Notifications" data-name="No Notifications"><path class="cls-1" d="M169.51,134.13c45.5-11,57.5-1.5,73.5,5s46,59.5,65.5,71.5,41.5,16.5,62.5,24.5,22,22,6.5,59.5-89.5,71-130.5,93-73.5,16-95.5,4-8.5-40.5-6.5-47,4-13,1.5-28.5-17.5-40-29.5-70.5-5.5-53,7-79.5C134,144.93,158.51,136,169.51,134.13ZM251,314.63c-6-5.2-17.5.5-22.5,4-6.84,4-21.8,13.7-27,20.5-6.5,8.5.5,21.5,12.5,32s24,7,34.5,3.5,16-20.5,16.5-32.5S258.51,321.13,251,314.63Z"/><path class="cls-2" d="M160.63,315.5a196.19,196.19,0,0,1,21.46-24.7c3.87-3.85,7.84-7.59,11.87-11.26,2-1.84,4.07-3.63,6.12-5.44l3.1-2.7,3.17-2.61c2.12-1.74,4.24-3.48,6.44-5.12l3.27-2.49,1.64-1.25,1.67-1.2c2.25-1.58,4.46-3.21,6.73-4.76l6.91-4.51a225.12,225.12,0,0,1,29.2-15.58,175.43,175.43,0,0,1,31.56-10.64,149.59,149.59,0,0,1,33.34-3.85l4.22.07a40,40,0,0,1,4.23.15c2.84.2,5.68.5,8.51.94A79.8,79.8,0,0,1,360.84,225c1.36.52,2.7,1.16,4.05,1.77s2.64,1.36,4,2.06a56.64,56.64,0,0,1,7.38,5.1,51.47,51.47,0,0,1,6.51,6.36,43.93,43.93,0,0,1,5.14,7.72,38.06,38.06,0,0,1,1.92,4.28,21.8,21.8,0,0,1,.75,2.24c.22.75.49,1.5.65,2.27l.47,2.32c.07.39.16.77.21,1.16l.12,1.18.22,2.35v2.35a38.42,38.42,0,0,1-.31,4.67,35,35,0,0,1-.78,4.56c-.17.75-.36,1.5-.58,2.24l-.68,2.12c-.23.7-.44,1.42-.7,2.11l-.81,2.06c-4.42,11-11.31,20.32-18.79,28.66-3.75,4.19-7.69,8.14-11.71,11.94s-8.15,7.49-12.4,11.05a286,286,0,0,1-26.69,19.67c-9.22,6-18.7,11.64-28.34,16.89S271,382.26,261,386.8s-20.11,8.66-30.45,12.5a163.93,163.93,0,0,1-32.4,8.77,84.1,84.1,0,0,1-17.29.87,62.49,62.49,0,0,1-8.83-1.21,49.15,49.15,0,0,1-8.64-2.69,43.29,43.29,0,0,1-15-10.36,40,40,0,0,1-9.32-15.44,44.69,44.69,0,0,1-2-17.57,42.12,42.12,0,0,1,1.6-8.62,78.72,78.72,0,0,1,2.76-8c2-5.12,4-10.08,4.94-15.22a30.91,30.91,0,0,0-1.4-15.2c-.79-2.52-1.79-5-2.81-7.51s-2-5-3.15-7.41c-2.19-4.9-4.71-9.67-7.21-14.48s-5.11-9.58-7.56-14.48-4.79-9.89-6.92-15a160.38,160.38,0,0,1-5.59-15.62,122.88,122.88,0,0,1-3.59-16.44,87.23,87.23,0,0,1,1.8-33.86A88.86,88.86,0,0,1,124.21,159a78,78,0,0,1,11.63-12.59c1.12-.9,2.17-1.88,3.35-2.71l3.5-2.51,3.67-2.26c1.22-.74,2.46-1.37,3.69-2.05a113.9,113.9,0,0,1,31.64-11.1,97.73,97.73,0,0,1,16.73-1.69,84.26,84.26,0,0,1,16.85,1.31,70.7,70.7,0,0,1,16.2,5,73.56,73.56,0,0,1,14.44,8.69,94.78,94.78,0,0,1,12.25,11.36c3.74,4.12,7.1,8.43,10.39,12.78,6.55,8.71,12.81,17.53,19.57,25.93a155.54,155.54,0,0,0,10.75,12.06A98.78,98.78,0,0,0,311,211.87a.57.57,0,0,1,.13.14.44.44,0,0,1,.07.19.61.61,0,0,1,0,.19.75.75,0,0,1-.08.18.57.57,0,0,1-.32.2.5.5,0,0,1-.36-.07c-9.21-5.9-17.22-13.53-24.48-21.66s-13.9-16.81-20.77-25.14c-3.45-4.15-6.89-8.3-10.58-12.08a89.74,89.74,0,0,0-11.94-10.34,71,71,0,0,0-13.6-7.64,65.1,65.1,0,0,0-14.92-4.21,78.14,78.14,0,0,0-15.58-.79,97.75,97.75,0,0,0-15.54,2,106.57,106.57,0,0,0-29.36,10.91c-1.13.66-2.31,1.28-3.39,2l-3.22,2.07L144,150.05c-1,.75-1.95,1.65-2.93,2.46a69.76,69.76,0,0,0-10.28,11.37,80.49,80.49,0,0,0-12.67,28A84.45,84.45,0,0,0,116,207.13a91.92,91.92,0,0,0,.56,15.47A115.47,115.47,0,0,0,119.39,238c1.24,5.12,2.77,10.21,4.51,15.24a318.72,318.72,0,0,0,12.27,29.85q3.41,7.41,6.55,15c1,2.52,2,5.12,2.95,7.66s1.86,5.14,2.68,7.81a45.1,45.1,0,0,1,1.74,8.29,32.63,32.63,0,0,1,.16,4.31,35.91,35.91,0,0,1-.47,4.28c-1,5.56-2.75,10.81-4.1,16a65.58,65.58,0,0,0-1.57,7.72,36.35,36.35,0,0,0-.21,7.52A43.32,43.32,0,0,0,147.58,376a39.43,39.43,0,0,0,8,11.86,33.3,33.3,0,0,0,11.66,7.9,41.11,41.11,0,0,0,6.89,2.07,52.71,52.71,0,0,0,7.31.91,73.25,73.25,0,0,0,15.15-.92c10.18-1.61,20.28-4.79,30.22-8.54s19.89-8,29.62-12.48,19.35-9.25,28.73-14.41,18.59-10.63,27.5-16.5a304.69,304.69,0,0,0,25.66-19q6.12-5.07,11.94-10.53c3.88-3.63,7.63-7.34,11.14-11.21,7-7.72,13.17-16.14,16.93-25.34l.68-1.67c.22-.57.39-1.16.59-1.74l.58-1.75c.16-.56.31-1.12.45-1.69a25.28,25.28,0,0,0,.6-3.46,26.41,26.41,0,0,0,.25-3.44v-1.71l-.16-1.7-.07-.85a4.68,4.68,0,0,0-.16-.83l-.31-1.68c-.1-.55-.3-1.09-.45-1.64a13.27,13.27,0,0,0-.52-1.62,27.5,27.5,0,0,0-1.37-3.15,33,33,0,0,0-3.78-5.85,41.21,41.21,0,0,0-5-5.06,48.21,48.21,0,0,0-5.93-4.21c-1.08-.57-2.13-1.21-3.24-1.74s-2.21-1.07-3.38-1.52a69.08,69.08,0,0,0-14.58-4.06c-2.52-.43-5.07-.74-7.64-1-1.29-.12-2.59-.16-3.9-.19l-4-.16c-20.89-.28-41.84,4.56-61.43,12.68a245.63,245.63,0,0,0-28.66,14.11,292.73,292.73,0,0,0-26.86,17.62l-3.26,2.38-3.19,2.46c-2.13,1.64-4.27,3.27-6.37,5-4.21,3.39-8.38,6.81-12.5,10.3s-8.11,7.11-12,10.82-7.73,7.63-11.33,11.63a.52.52,0,0,1-.35.14.48.48,0,0,1-.35-.14.44.44,0,0,1-.15-.3A.49.49,0,0,1,160.63,315.5Z"/><path class="cls-2" d="M131.56,182.45c-.44,3.34-.87,6.55-1.2,9.8s-.57,6.46-.66,9.68,0,6.4.17,9.57l.21,2.37a23.56,23.56,0,0,1,.15,2.37,14,14,0,0,1-.89,5.08.61.61,0,0,1-.33.32.58.58,0,0,1-.45,0,.57.57,0,0,1-.18-.12,9,9,0,0,1-1.71-2.21,9.37,9.37,0,0,1-1-2.43,23.7,23.7,0,0,1-.68-5.1,62.21,62.21,0,0,1,.31-10.21,68.9,68.9,0,0,1,1.91-9.94,57,57,0,0,1,3.4-9.45.49.49,0,0,1,.24-.31.51.51,0,0,1,.4-.05.55.55,0,0,1,.31.25.53.53,0,0,1,.05.39Z"/><path class="cls-2" d="M196.67,142.69a7.35,7.35,0,0,1,.84-.19l.69-.09c.46-.06.92-.09,1.37-.12l1.38-.08h2.75l1.37.1c.91.07,1.83.11,2.73.25,1.81.28,3.64.48,5.42.94l2.69.61,2.63.79a78.13,78.13,0,0,1,19.81,9.57c1.49,1.08,3,2.15,4.46,3.25l1.1.82a12.69,12.69,0,0,1,1,.9l2.07,1.81,2.13,1.88,1,.91,1,1c1.28,1.31,2.55,2.64,3.79,4a41.5,41.5,0,0,1,3.47,4.25c1.11,1.45,2.15,3,3.22,4.43a96.81,96.81,0,0,1,5.23,9.6l-.84.54c-2.61-2.56-4.89-5.29-7.23-8-1.21-1.3-2.46-2.56-3.63-3.88s-2.31-2.66-3.6-3.86-2.48-2.49-3.69-3.76l-.91-1-1-.88-2-1.75-2-1.75c-.33-.29-.65-.59-1-.87l-1-.79c-1.4-1.05-2.77-2.13-4.16-3.2a88.15,88.15,0,0,0-18.37-10l-2.33-1-2.51-.78a52.32,52.32,0,0,0-5.08-1.41c-.86-.23-1.73-.33-2.59-.52l-1.3-.25-1.31-.18-1.31-.17-1.32-.12c-.44,0-.88-.08-1.31-.08h-1.15Z"/><path class="cls-2" d="M126.86,146a20.18,20.18,0,0,1-5.37-8.2,16.6,16.6,0,0,1-.27-10.65,15.7,15.7,0,0,1,2.68-5,19.34,19.34,0,0,1,4-3.77l1.09-.76c.37-.25.74-.42,1.11-.64.75-.41,1.48-.82,2.24-1.22l2.38-1,.6-.24.64-.18,1.26-.36a23,23,0,0,1,10.53-.41,23.46,23.46,0,0,1,9.37,4.21,36.82,36.82,0,0,1,11.57,15.09.59.59,0,0,1,0,.35.51.51,0,0,1-.21.27.49.49,0,0,1-.33.09.46.46,0,0,1-.31-.15c-2.14-2.21-4.26-4.34-6.49-6.27a40.93,40.93,0,0,0-7.08-4.82c-.62-.29-1.22-.64-1.85-.88l-1.89-.7-1.91-.5c-.63-.12-1.28-.19-1.91-.3a19.28,19.28,0,0,0-7.55.82,31.35,31.35,0,0,0-3.66,1.46c-1.15.67-2.41,1.32-3.43,2a13.89,13.89,0,0,0-4.72,5.23,14.75,14.75,0,0,0-1.28,7.35,35.45,35.45,0,0,0,1.64,8.59v.05a.53.53,0,0,1,0,.33.54.54,0,0,1-.21.26.52.52,0,0,1-.32.07.47.47,0,0,1-.3-.14Z"/><path class="cls-2" d="M138,149.86s-6-5.84-3-11,25.61-15.06,26-14.72,9.4,8,4.22,10.11S138,149.86,138,149.86Z"/><path class="cls-2" d="M212.83,332.53A32.26,32.26,0,0,0,206,341.7a14.37,14.37,0,0,0-1.44,5.25,8.54,8.54,0,0,0,.19,2.57,11,11,0,0,0,.94,2.46c3.33,6.89,7.82,13.38,13.54,17.9a28.08,28.08,0,0,0,4.5,2.86,20.64,20.64,0,0,0,4.86,1.65,18.22,18.22,0,0,0,5,.33,22.62,22.62,0,0,0,5-1,34.14,34.14,0,0,0,9.49-4.92,29.55,29.55,0,0,0,7.41-7.55,33.77,33.77,0,0,0,5.6-20.55,35,35,0,0,0-2-10.82c-.28-.88-.69-1.7-1-2.55-.19-.42-.42-.81-.63-1.22a12.55,12.55,0,0,0-.67-1.19,19.94,19.94,0,0,0-3.35-4.24,13.12,13.12,0,0,0-4.42-2.85,10.27,10.27,0,0,0-5.17-.66,7.31,7.31,0,0,0-1.32.24,12.15,12.15,0,0,0-1.35.35l-2.78.9c-1.85.64-3.7,1.27-5.5,2a91.65,91.65,0,0,0-10.61,5A44.34,44.34,0,0,0,212.83,332.53Zm-.82-.9a41.48,41.48,0,0,1,4.76-3.59c1.64-1.11,3.3-2.18,5-3.21a102,102,0,0,1,10.46-5.62c1.79-.86,3.61-1.63,5.43-2.41l2.76-1.12a14.29,14.29,0,0,1,1.48-.5,8.18,8.18,0,0,1,1.55-.39,14.8,14.8,0,0,1,12.15,3.34,23.36,23.36,0,0,1,4.34,4.65,14.23,14.23,0,0,1,.89,1.3c.28.45.58.89.83,1.35.52.91,1,1.84,1.42,2.8a39.2,39.2,0,0,1,3.24,12.07,41.63,41.63,0,0,1-.64,12.6,37.19,37.19,0,0,1-4.9,11.82,36,36,0,0,1-8.9,9.3,39.4,39.4,0,0,1-11.43,5.76,27.8,27.8,0,0,1-3.23.71c-.55.08-1.09.18-1.65.23l-1.68.1a23.38,23.38,0,0,1-6.67-.72,26.07,26.07,0,0,1-6.13-2.53,29.9,29.9,0,0,1-5.18-3.83,43.27,43.27,0,0,1-7.77-9.69,64.08,64.08,0,0,1-5.24-10.92A14.2,14.2,0,0,1,202,350a11.47,11.47,0,0,1,0-3.31,16.72,16.72,0,0,1,2.13-5.91A34,34,0,0,1,212,331.63Z"/><path class="cls-2" d="M222,375s-34.76,18.5-52.14,7,26.62-58.79,74.69-86.89,125.71-54.73,124.23-32.54-28.28,52.75-107.5,94.41c4.34-25.64-.69-36.05-6.12-36.94s-.51-10.28-29,2.92-22.77,28-21.22,31.21S215.69,372.54,222,375Z"/><path class="cls-2" d="M141.8,379.41s-38.09,5.18-49.18,22.19,89.48,26.62,188.2,20.7,121.65-14.05,125.35-25.88-134.9-20.59-134.9-20.59-46.65,24.3-89.17,24.11S141.8,379.41,141.8,379.41Z"/><path class="cls-2" d="M269.87,95.26c2.68-.75,5.38-1.32,8.08-1.84s5.41-1,8.13-1.39,5.43-.74,8.15-1c1.37-.14,2.72-.31,4.09-.4a6.57,6.57,0,0,1,4.28,1.49l.54.43a.27.27,0,0,1,.05.15.25.25,0,0,1-.05.15l-.07.06-.08,0c-3.41,6-7.16,11.68-11,17.28s-7.89,11.08-12,16.48l-3,4c-.48.65-1,1.35-1.37,1.91l-.1.15.06-.11.08-.18v-.11a3.43,3.43,0,0,0,.21-1,3.71,3.71,0,0,0-.65-2.28c-.76-1.6-3.91-1.69-3-1.57h.17l1.23-.13c3.35-.4,6.74-.71,10.13-.94s6.8-.36,10.23-.37a94.08,94.08,0,0,1,10.34.51l.51.06.1.74-.48.19a88.37,88.37,0,0,1-9.86,3.17c-3.31.89-6.64,1.63-10,2.28s-6.58,1.17-10,1.59l-1.3.17h-1c.88.13-2.28,0-3-1.58a3.6,3.6,0,0,1-.66-2.31,2.35,2.35,0,0,1,.1-.69,3.45,3.45,0,0,1,.12-.43l.06-.15.11-.25.14-.26.17-.29.25-.38c.58-.85,1.09-1.5,1.62-2.21,1.05-1.39,2.12-2.72,3.2-4,4.3-5.31,8.76-10.45,13.38-15.47s9.4-9.89,14.53-14.48l.43.81a6.49,6.49,0,0,1-3.9,2.29c-1.36.18-2.73.26-4.09.4-2.73.22-5.47.41-8.21.54s-5.48.2-8.24.21-5.5,0-8.28-.25h-.51l-.08-.82Z"/><path class="cls-2" d="M326.18,63.72a60.58,60.58,0,0,1,6.16.47c2,.25,4,.56,6.05.92s4,.78,6,1.25c1,.24,2,.45,2.95.74a4.44,4.44,0,0,1,2.49,2.58l.31.73a.2.2,0,0,1,0,.11.16.16,0,0,1-.07.07H350a130.16,130.16,0,0,1-11.71,9.78c-4,3-8.17,5.91-12.33,8.69l-3.12,2.07c-.49.32-1,.69-1.39,1l-.08.06h.05l.11-.1.14-.15.08-.1a2.8,2.8,0,0,0,.24-.33,2.49,2.49,0,0,0,.31-.58,3.57,3.57,0,0,0,.15-2.37c-.17-1.76-3.11-2.91-2.31-2.5l.88.22c2.42.56,4.86,1.22,7.27,2s4.8,1.57,7.17,2.54a52.6,52.6,0,0,1,7,3.41l.45.27-.14.65-.52.06a50.57,50.57,0,0,1-7.78.21c-2.55-.1-5.08-.33-7.59-.66s-5-.74-7.48-1.28l-1-.21-.41-.11-.24-.06h-.12c.79.41-2.15-.75-2.33-2.52a3.64,3.64,0,0,1,.15-2.39,2.4,2.4,0,0,1,.33-.61,1.83,1.83,0,0,1,.26-.36l.1-.11.18-.2.2-.18.23-.19.3-.41c.65-.47,1.17-.8,1.73-1.16,1.08-.71,2.16-1.38,3.26-2q6.53-3.91,13.32-7.26a122.69,122.69,0,0,1,14.06-6l.14.91a4.45,4.45,0,0,1-1.59.92,4.33,4.33,0,0,1-1.82.18c-1-.21-2-.5-3-.75-1.95-.54-3.9-1.11-5.84-1.74s-3.85-1.31-5.76-2.06a59.51,59.51,0,0,1-5.65-2.51l-.45-.24.19-.73Z"/></g></svg>